<?xml version="1.0" encoding="utf-8"?>
<!-- Generator: Adobe Illustrator 16.0.4, SVG Export Plug-In . SVG Version: 6.00 Build 0)  -->
<!DOCTYPE svg PUBLIC "-//W3C//DTD SVG 1.1//EN" "http://www.w3.org/Graphics/SVG/1.1/DTD/svg11.dtd">
<svg version="1.1" id="Layer_1" xmlns="http://www.w3.org/2000/svg" xmlns:xlink="http://www.w3.org/1999/xlink" x="0px" y="0px"
	 width="496.553px" height="206.327px" viewBox="0 0 496.553 206.327" enable-background="new 0 0 496.553 206.327"
	 xml:space="preserve">
<g>
	<path fill="#31668E" d="M2.499,111.282c0-25.689,16.475-41.807,35.961-41.807c11.688,0,21.603,6.196,25.859,17.715l2.301-16.126
		h17.537l-9.742,55.8c-0.536,3.548,0.355,5.149,3.36,5.149h6.033l-2.305,13.452h-8.511c-13.815,0-16.11-4.778-16.11-11.693v-1.589
		c-6.024,9.563-13.462,14.877-24.445,14.877C15.426,147.061,2.499,133.067,2.499,111.282 M60.421,106.497
		c0-12.756-6.732-21.613-18.241-21.613c-13.117,0-21.439,10.632-21.439,26.039c0,12.574,6.732,20.904,17.893,20.904
		C51.202,131.827,60.421,121.196,60.421,106.497z"/>
	<path fill="#31668E" d="M98.325,126.516l9.569-55.452h17.716l-9.92,55.8c-0.536,3.548,0.35,5.149,3.361,5.149h6.204l-2.308,13.452
		h-8.679C100.455,145.466,95.677,140.861,98.325,126.516"/>
	<path fill="#31668E" d="M135.524,131.116l12.582-8.498c4.241,6.372,9.737,10.449,18.948,10.449c8.685,0,12.044-3.186,12.044-7.971
		c0-4.779-3.895-6.206-15.059-11.52c-10.266-5.132-17.705-10.975-17.705-22.312c0-14.172,11.337-21.79,25.857-21.79
		c11.335,0,19.659,4.611,24.799,11.158l-11.51,9.568c-3.011-3.894-6.552-7.087-13.463-7.087c-5.488,0-9.39,2.479-9.39,6.919
		c0,4.417,3.722,6.541,12.221,10.438c11.689,5.496,21.074,10.63,21.074,24.098c0,13.113-9.739,22.491-29.225,22.491
		C151.468,147.061,141.016,140.157,135.524,131.116"/>
	<path fill="#D67013" d="M119.912,55.195c7.12,0,12.885-5.76,12.88-12.871c0-7.113-5.76-12.867-12.88-12.867
		c-7.109,0-12.871,5.754-12.871,12.867C107.041,49.435,112.803,55.195,119.912,55.195"/>
	<path opacity="0.6" fill="#D67013" d="M85.653,0c-4.218,0.004-7.631,3.421-7.631,7.635c0,4.215,3.413,7.626,7.631,7.621
		c4.223,0.005,7.625-3.406,7.625-7.627C93.278,3.421,89.876,0,85.653,0"/>
	<path opacity="0.4" fill="#D67013" d="M64.725,8.038c-3.193,0.012-5.764,2.584-5.764,5.764c0,3.186,2.57,5.767,5.764,5.754
		c3.183,0,5.757-2.576,5.757-5.757C70.477,10.622,67.907,8.038,64.725,8.038"/>
	<path opacity="0.2" fill="#D67013" d="M53.721,24.241c-2.127,0.005-3.851,1.727-3.851,3.858c0,2.126,1.724,3.853,3.851,3.853
		c2.137,0,3.866-1.727,3.866-3.857C57.587,25.968,55.863,24.241,53.721,24.241"/>
	<path opacity="0.8" fill="#D67013" d="M108.573,6.438c-5.358,0-9.692,4.342-9.692,9.702c0,5.345,4.334,9.681,9.692,9.694
		c5.353-0.013,9.687-4.349,9.687-9.694C118.25,10.791,113.92,6.444,108.573,6.438"/>
</g>
<path fill="#D67013" d="M10.221,185.733h3.236l7.901,19.329h-4.195l-1.552-3.797H8.183l-1.513,3.797H2.499L10.221,185.733
	 M11.851,192.065l-2.272,5.7h4.602L11.851,192.065z"/>
<path fill="#D67013" d="M27.393,185.733h6.612c1.777,0,3.21,0.518,4.3,1.555c1.09,1.035,1.635,2.399,1.635,4.088
	c0,1.109-0.268,2.163-0.802,3.16c-0.536,0.997-1.343,1.74-2.422,2.232c-1.08,0.49-2.002,0.747-2.768,0.766l-2.414,0.059v7.47h-4.141
	V185.733 M31.471,189.202v4.953h1.622c0.697,0,1.294-0.25,1.79-0.752c0.496-0.501,0.744-1.095,0.744-1.783
	c0-0.787-0.28-1.395-0.84-1.828c-0.56-0.433-1.356-0.647-2.388-0.647L31.471,189.202z"/>
<path fill="#D67013" d="M46.419,185.733h6.612c1.777,0,3.21,0.518,4.3,1.555c1.09,1.035,1.635,2.399,1.635,4.088
	c0,1.109-0.268,2.163-0.802,3.16c-0.536,0.997-1.343,1.74-2.422,2.232c-1.08,0.49-2.002,0.747-2.768,0.766l-2.415,0.059v7.47h-4.14
	V185.733 M50.497,189.202v4.953h1.622c0.697,0,1.294-0.25,1.79-0.752c0.496-0.501,0.744-1.095,0.744-1.783
	c0-0.787-0.28-1.395-0.84-1.828c-0.56-0.433-1.356-0.647-2.388-0.647L50.497,189.202z"/>
<polyline fill="#D67013" points="65.445,185.733 69.586,185.733 69.586,200.891 75.289,200.891 75.289,205.062 65.445,205.062 
	65.445,185.733 "/>
<rect x="81.037" y="185.733" fill="#D67013" width="4.172" height="19.329"/>
<polyline fill="#D67013" points="92.124,185.733 103,185.733 103,189.562 96.296,189.562 96.296,193.468 103,193.468 103,197.233 
	96.296,197.233 96.296,201.233 103,201.233 103,205.062 92.124,205.062 92.124,185.733 "/>
<path fill="#D67013" d="M109.479,185.733h6.594c2.815,0,5.082,0.889,6.799,2.664c1.717,1.777,2.576,4.118,2.576,7.021
	c0,2.915-0.886,5.251-2.657,7.008c-1.771,1.758-4.128,2.636-7.072,2.636h-6.24V185.733 M113.682,189.391v11.937h1.647
	c1.706,0,3.108-0.466,4.206-1.398c1.098-0.932,1.647-2.487,1.647-4.666c0-1.266-0.265-2.387-0.794-3.363
	c-0.529-0.977-1.297-1.639-2.302-1.987c-1.004-0.349-1.963-0.521-2.875-0.521H113.682z"/>
<rect x="131.518" y="185.733" fill="#4D4D4D" width="4.171" height="19.329"/>
<polyline fill="#4D4D4D" points="155.37,185.733 159.448,185.733 159.448,205.062 155.406,205.062 146.541,192.546 146.541,205.062 
	142.37,205.062 142.37,185.733 146.496,185.733 155.37,198.155 155.37,185.733 "/>
<polyline fill="#4D4D4D" points="166.373,185.733 177.248,185.733 177.248,189.468 170.513,189.468 170.513,193.421 
	177.248,193.421 177.248,197.188 170.544,197.188 170.544,205.062 166.373,205.062 166.373,185.733 "/>
<path fill="#4D4D4D" d="M183.181,195.384c0-2.857,0.945-5.217,2.835-7.078c1.89-1.86,4.131-2.79,6.723-2.79
	c2.867,0,5.238,0.935,7.114,2.805c1.875,1.871,2.813,4.235,2.813,7.093c0,2.838-0.928,5.194-2.784,7.069
	c-1.856,1.876-4.192,2.813-7.01,2.813s-5.138-0.933-6.959-2.799C184.092,200.632,183.181,198.261,183.181,195.384 M192.93,189.374
	c-1.62-0.029-2.926,0.53-3.918,1.68c-0.992,1.148-1.487,2.633-1.487,4.448c0,1.719,0.506,3.144,1.516,4.272
	c1.012,1.129,2.289,1.693,3.83,1.693c1.62,0,2.928-0.557,3.924-1.672c0.997-1.113,1.496-2.585,1.496-4.412
	c0-1.797-0.489-3.239-1.466-4.33C195.848,189.964,194.55,189.403,192.93,189.374z"/>
<path fill="#4D4D4D" d="M209.12,185.733h6.364c1.935,0,3.465,0.511,4.589,1.532c1.125,1.021,1.687,2.399,1.687,4.137
	c0,0.993-0.258,2.022-0.772,3.093c-0.515,1.07-1.464,1.909-2.847,2.518l5.4,8.05h-4.769l-5.012-7.47h-0.469v7.47h-4.171V185.733
	 M213.323,189.188v5.03h0.899c2.171,0,3.257-0.888,3.257-2.663c0-0.726-0.282-1.302-0.848-1.729
	c-0.564-0.427-1.348-0.639-2.35-0.639H213.323z"/>
<polyline fill="#4D4D4D" points="231.115,185.733 236.082,185.733 239.698,197.312 243.333,185.733 248.107,185.733 
	250.581,205.062 246.625,205.062 244.917,191.468 240.648,205.062 238.752,205.062 234.401,191.343 232.803,205.062 
	228.769,205.062 231.115,185.733 "/>
<path fill="#4D4D4D" d="M263.349,185.733h3.236l7.902,19.329h-4.195l-1.552-3.797h-7.43l-1.513,3.797h-4.171L263.349,185.733
	 M264.979,192.065l-2.272,5.7h4.602L264.979,192.065z"/>
<polyline fill="#4D4D4D" points="277.303,185.733 290.319,185.733 290.319,189.843 285.881,189.843 285.881,205.062 
	281.709,205.062 281.709,189.843 277.303,189.843 277.303,185.733 "/>
<rect x="295.877" y="185.733" fill="#4D4D4D" width="4.172" height="19.329"/>
<path fill="#4D4D4D" d="M306.308,195.384c0-2.857,0.944-5.217,2.835-7.078c1.892-1.86,4.132-2.79,6.724-2.79
	c2.867,0,5.238,0.935,7.113,2.805c1.876,1.871,2.812,4.235,2.812,7.093c0,2.838-0.927,5.194-2.783,7.069
	c-1.855,1.876-4.191,2.813-7.01,2.813s-5.137-0.933-6.959-2.799C307.219,200.632,306.308,198.261,306.308,195.384 M316.057,189.374
	c-1.62-0.029-2.926,0.53-3.918,1.68c-0.991,1.148-1.486,2.633-1.486,4.448c0,1.719,0.506,3.144,1.516,4.272
	c1.012,1.129,2.289,1.693,3.83,1.693c1.62,0,2.928-0.557,3.924-1.672c0.997-1.113,1.495-2.585,1.495-4.412
	c0-1.797-0.488-3.239-1.465-4.33C318.975,189.964,317.676,189.403,316.057,189.374z"/>
<polyline fill="#4D4D4D" points="345.075,185.733 349.153,185.733 349.153,205.062 345.111,205.062 336.247,192.546 
	336.247,205.062 332.075,205.062 332.075,185.733 336.201,185.733 345.075,198.155 345.075,185.733 "/>
<path fill="#31668E" d="M366.906,187.485l-2.592,2.842c-1.366-0.802-2.35-1.203-2.947-1.203c-0.462,0-0.861,0.174-1.195,0.522
	c-0.334,0.347-0.501,0.761-0.501,1.24c0,0.95,0.865,1.773,2.592,2.472c1.268,0.541,2.225,1.03,2.872,1.467
	c0.65,0.437,1.193,1.043,1.63,1.819c0.438,0.773,0.656,1.612,0.656,2.516c0,1.658-0.67,3.101-2.008,4.327
	c-1.34,1.227-2.922,1.84-4.747,1.84c-2.002,0-3.979-0.939-5.932-2.82l2.738-3.194c1.226,1.26,2.372,1.89,3.442,1.89
	c0.5,0,0.979-0.223,1.44-0.666c0.461-0.445,0.69-0.911,0.69-1.399c0-1.006-1.064-1.895-3.195-2.666
	c-1.218-0.445-2.08-0.861-2.591-1.249c-0.51-0.388-0.937-0.951-1.286-1.693c-0.348-0.741-0.521-1.499-0.521-2.274
	c0-1.718,0.559-3.11,1.678-4.182c1.118-1.069,2.58-1.604,4.387-1.604C363.657,185.468,365.454,186.142,366.906,187.485"/>
<path fill="#31668E" d="M387.876,186.766v4.718c-2.09-1.259-3.92-1.891-5.49-1.891c-1.569,0-2.827,0.54-3.768,1.619
	c-0.943,1.079-1.413,2.531-1.413,4.356c0,1.728,0.495,3.108,1.486,4.144c0.99,1.035,2.315,1.554,3.975,1.554
	c1.452,0,3.189-0.589,5.21-1.767v4.688c-2.266,0.76-4.156,1.14-5.668,1.14c-2.6,0-4.808-0.954-6.624-2.863
	c-1.816-1.908-2.723-4.236-2.723-6.984c0-2.797,0.925-5.166,2.773-7.104c1.852-1.938,4.102-2.907,6.75-2.907
	C384.093,185.468,385.923,185.9,387.876,186.766"/>
<rect x="393.822" y="185.733" fill="#31668E" width="4.172" height="19.329"/>
<polyline fill="#31668E" points="404.909,185.733 415.784,185.733 415.784,189.562 409.081,189.562 409.081,193.468 
	415.784,193.468 415.784,197.233 409.081,197.233 409.081,201.233 415.784,201.233 415.784,205.062 404.909,205.062 
	404.909,185.733 "/>
<polyline fill="#31668E" points="435.139,185.733 439.217,185.733 439.217,205.062 435.175,205.062 426.312,192.546 
	426.312,205.062 422.139,205.062 422.139,185.733 426.265,185.733 435.139,198.155 435.139,185.733 "/>
<path fill="#31668E" d="M460.564,186.766v4.718c-2.092-1.259-3.922-1.891-5.49-1.891c-1.571,0-2.827,0.54-3.77,1.619
	c-0.941,1.079-1.413,2.531-1.413,4.356c0,1.728,0.495,3.108,1.486,4.144c0.992,1.035,2.317,1.554,3.975,1.554
	c1.452,0,3.189-0.589,5.212-1.767v4.688c-2.268,0.76-4.156,1.14-5.669,1.14c-2.601,0-4.809-0.954-6.623-2.863
	c-1.816-1.908-2.725-4.236-2.725-6.984c0-2.797,0.925-5.166,2.775-7.104c1.85-1.938,4.1-2.907,6.75-2.907
	C456.781,185.468,458.611,185.9,460.564,186.766"/>
<polyline fill="#31668E" points="466.744,185.733 477.619,185.733 477.619,189.562 470.916,189.562 470.916,193.468 
	477.619,193.468 477.619,197.233 470.916,197.233 470.916,201.233 477.619,201.233 477.619,205.062 466.744,205.062 
	466.744,185.733 "/>
<path fill="#31668E" d="M495.038,187.485l-2.592,2.842c-1.365-0.802-2.35-1.203-2.947-1.203c-0.462,0-0.861,0.174-1.195,0.522
	c-0.334,0.347-0.501,0.761-0.501,1.24c0,0.95,0.863,1.773,2.593,2.472c1.266,0.541,2.224,1.03,2.872,1.467s1.191,1.043,1.63,1.819
	c0.437,0.773,0.655,1.612,0.655,2.516c0,1.658-0.67,3.101-2.01,4.327c-1.338,1.227-2.92,1.84-4.746,1.84
	c-2.002,0-3.978-0.939-5.931-2.82l2.739-3.194c1.226,1.26,2.371,1.89,3.439,1.89c0.5,0,0.981-0.223,1.442-0.666
	c0.461-0.445,0.69-0.911,0.69-1.399c0-1.006-1.064-1.895-3.194-2.666c-1.218-0.445-2.081-0.861-2.591-1.249
	s-0.938-0.951-1.286-1.693c-0.349-0.741-0.522-1.499-0.522-2.274c0-1.718,0.56-3.11,1.678-4.182
	c1.119-1.069,2.582-1.604,4.389-1.604C491.79,185.468,493.584,186.142,495.038,187.485"/>
</svg>
